<svg width="46" height="46" viewBox="0 0 46 46" fill="none" xmlns="http://www.w3.org/2000/svg">
<g id="1">
<path id="Combined-Shape-path" fill-rule="evenodd" clip-rule="evenodd" d="M1 23C1 10.8497 10.8497 1 23 1C35.1503 1 45 10.8497 45 23C45 35.1503 35.1503 45 23 45C10.8497 45 1 35.1503 1 23Z" stroke="#F4F5F6"/>
<path id="Subtract" fill-rule="evenodd" clip-rule="evenodd" d="M20.2352 21.9528L12.0691 15.75H34.9792L24.7583 24.2476C24.3053 24.6242 23.6509 24.6334 23.1875 24.2697L20.2352 21.9528ZM29.1285 22.5649L36.2085 16.6787C36.2356 16.7812 36.25 16.8888 36.25 17V28.963L29.1285 22.5649ZM27.9628 23.534L35.3745 30.1929C35.2563 30.23 35.1305 30.25 35 30.25H12.2046L19.8013 23.5191L22.2614 25.4497C23.2809 26.2498 24.7207 26.2295 25.7172 25.401L27.9628 23.534ZM18.5909 22.5874L10.8366 29.458C10.7807 29.3162 10.75 29.1617 10.75 29V17C10.75 16.8842 10.7656 16.7722 10.795 16.6659L18.5909 22.5874Z" fill="#E6E8EB"/>
</g>
</svg>
