<svg width="46" height="46" viewBox="0 0 46 46" fill="none" xmlns="http://www.w3.org/2000/svg">
<path fill-rule="evenodd" clip-rule="evenodd" d="M1 23C1 10.8497 10.8497 1 23 1C35.1503 1 45 10.8497 45 23C45 35.1503 35.1503 45 23 45C10.8497 45 1 35.1503 1 23Z" stroke="#F4F5F6"/>
<path d="M23.0009 11.0833C19.64 11.0833 19.2182 11.098 17.8982 11.1581C16.5808 11.2184 15.6815 11.427 14.8947 11.733C14.0808 12.0491 13.3903 12.4719 12.7025 13.16C12.0141 13.8478 11.5913 14.5383 11.2742 15.3519C10.9674 16.139 10.7585 17.0385 10.6993 18.3554C10.6405 19.6754 10.625 20.0975 10.625 23.4583C10.625 26.8192 10.64 27.2396 10.6998 28.5597C10.7604 29.8771 10.9689 30.7763 11.2747 31.5632C11.591 32.3771 12.0139 33.0675 12.702 33.7553C13.3896 34.4437 14.08 34.8675 14.8934 35.1836C15.6808 35.4896 16.5803 35.6982 17.8975 35.7585C19.2175 35.8186 19.639 35.8333 22.9996 35.8333C26.3608 35.8333 26.7812 35.8186 28.1013 35.7585C29.4187 35.6982 30.319 35.4896 31.1064 35.1836C31.92 34.8675 32.6094 34.4437 33.297 33.7553C33.9854 33.0675 34.4082 32.3771 34.7253 31.5634C35.0295 30.7763 35.2384 29.8768 35.3002 28.5599C35.3595 27.2399 35.375 26.8192 35.375 23.4583C35.375 20.0975 35.3595 19.6757 35.3002 18.3557C35.2384 17.0383 35.0295 16.139 34.7253 15.3522C34.4082 14.5383 33.9854 13.8478 33.297 13.16C32.6086 12.4716 31.9203 12.0488 31.1056 11.733C30.3167 11.427 29.4169 11.2184 28.0995 11.1581C26.7794 11.098 26.3592 11.0833 22.9973 11.0833H23.0009ZM21.8908 13.3134C22.2202 13.3129 22.5879 13.3134 23.0009 13.3134C26.3051 13.3134 26.6967 13.3253 28.0015 13.3845C29.2081 13.4397 29.8629 13.6413 30.2991 13.8107C30.8766 14.035 31.2884 14.3031 31.7212 14.7363C32.1544 15.1694 32.4225 15.5819 32.6473 16.1594C32.8167 16.5951 33.0186 17.2499 33.0735 18.4565C33.1328 19.761 33.1457 20.1529 33.1457 23.4555C33.1457 26.7581 33.1328 27.1499 33.0735 28.4545C33.0183 29.661 32.8167 30.3159 32.6473 30.7516C32.423 31.3291 32.1544 31.7403 31.7212 32.1732C31.2881 32.6063 30.8769 32.8744 30.2991 33.0987C29.8634 33.2689 29.2081 33.4699 28.0015 33.5251C26.6969 33.5844 26.3051 33.5973 23.0009 33.5973C19.6965 33.5973 19.3049 33.5844 18.0003 33.5251C16.7937 33.4694 16.1389 33.2678 15.7024 33.0984C15.1249 32.8741 14.7124 32.606 14.2793 32.1729C13.8461 31.7398 13.578 31.3283 13.3532 30.7505C13.1838 30.3148 12.9819 29.66 12.927 28.4534C12.8677 27.1489 12.8559 26.757 12.8559 23.4524C12.8559 20.1477 12.8677 19.7579 12.927 18.4534C12.9822 17.2468 13.1838 16.592 13.3532 16.1558C13.5775 15.5783 13.8461 15.1658 14.2793 14.7326C14.7124 14.2995 15.1249 14.0314 15.7024 13.8066C16.1386 13.6364 16.7937 13.4353 18.0003 13.3799C19.1419 13.3283 19.5843 13.3129 21.8908 13.3103V13.3134Z" fill="#E6E8EB"/>
<path fill-rule="evenodd" clip-rule="evenodd" d="M21.8908 13.3134C22.2202 13.3129 22.5879 13.3134 23.0009 13.3134C26.3051 13.3134 26.6967 13.3253 28.0015 13.3845C29.2081 13.4397 29.8629 13.6413 30.2991 13.8107C30.8766 14.035 31.2884 14.3031 31.7212 14.7363C32.1544 15.1694 32.4225 15.5819 32.6473 16.1594C32.8167 16.5951 33.0186 17.2499 33.0735 18.4565C33.1328 19.761 33.1457 20.1529 33.1457 23.4555C33.1457 26.7581 33.1328 27.1499 33.0735 28.4545C33.0183 29.661 32.8167 30.3159 32.6473 30.7516C32.423 31.3291 32.1544 31.7403 31.7212 32.1732C31.2881 32.6063 30.8769 32.8744 30.2991 33.0987C29.8634 33.2689 29.2081 33.4699 28.0015 33.5251C26.6969 33.5844 26.3051 33.5973 23.0009 33.5973C19.6965 33.5973 19.3049 33.5844 18.0003 33.5251C16.7937 33.4694 16.1389 33.2678 15.7024 33.0984C15.1249 32.8741 14.7124 32.606 14.2793 32.1729C13.8461 31.7398 13.578 31.3283 13.3532 30.7505C13.1838 30.3148 12.9819 29.66 12.927 28.4534C12.8677 27.1489 12.8559 26.757 12.8559 23.4524C12.8559 20.1477 12.8677 19.7579 12.927 18.4534C12.9822 17.2468 13.1838 16.592 13.3532 16.1558C13.5775 15.5783 13.8461 15.1658 14.2793 14.7326C14.7124 14.2995 15.1249 14.0314 15.7024 13.8066C16.1386 13.6364 16.7937 13.4353 18.0003 13.3799C19.1419 13.3283 19.5843 13.3129 21.8908 13.3103V13.3134ZM29.58 15.3378C29.2863 15.3378 28.9992 15.4249 28.7549 15.5881C28.5107 15.7513 28.3204 15.9832 28.208 16.2546C28.0956 16.526 28.0662 16.8246 28.1236 17.1127C28.1809 17.4007 28.3224 17.6653 28.5301 17.873C28.7379 18.0807 29.0025 18.222 29.2906 18.2793C29.5787 18.3365 29.8773 18.307 30.1487 18.1946C30.42 18.0821 30.6519 17.8917 30.815 17.6474C30.9781 17.4031 31.0651 17.116 31.065 16.8222C31.065 16.0024 30.3999 15.3378 29.58 15.3378ZM22.9743 17.0728C19.4647 17.0728 16.6191 19.9183 16.6191 23.4279C16.6191 26.9375 19.4647 29.7817 22.9743 29.7817C26.4839 29.7817 29.3287 26.9375 29.3287 23.4279C29.3287 19.9183 26.4839 17.0728 22.9743 17.0728Z" fill="#E6E8EB"/>
<path d="M27.0606 23.4583C27.0606 25.7009 25.2426 27.5189 23 27.5189C20.7574 27.5189 18.9395 25.7009 18.9395 23.4583C18.9395 21.2158 20.7574 19.3978 23 19.3978C25.2426 19.3978 27.0606 21.2158 27.0606 23.4583Z" fill="#E6E8EB"/>
</svg>
