<svg width="48" height="48" viewBox="0 0 48 48" fill="none" xmlns="http://www.w3.org/2000/svg">
<path fill-rule="evenodd" clip-rule="evenodd" d="M2 24C2 11.8497 11.8497 2 24 2C36.1503 2 46 11.8497 46 24C46 36.1503 36.1503 46 24 46C11.8497 46 2 36.1503 2 24Z" stroke="#F4F5F6"/>
<path d="M31.4149 31.9042C31.8255 30.6442 33.7495 18.0871 33.9873 15.6127C34.0592 14.8633 33.8223 14.3654 33.3583 14.1431C32.7972 13.8732 31.9663 14.0081 31.0024 14.3556C29.6803 14.8323 12.7782 22.0088 11.8016 22.4242C10.8756 22.8174 10 23.2464 10 23.8677C10 24.3045 10.2592 24.5501 10.9736 24.8054C11.7172 25.0704 13.5897 25.6383 14.6953 25.9431C15.7602 26.2372 16.9726 25.9819 17.6521 25.5596C18.3724 25.1121 26.6846 19.5499 27.2816 19.0626C27.8777 18.5753 28.3533 19.1995 27.866 19.6878C27.3787 20.1751 21.6728 25.713 20.9205 26.4799C20.0071 27.4108 20.6555 28.3757 21.2681 28.762C21.9679 29.2027 27.0011 32.5789 27.7592 33.1205C28.5174 33.6622 29.2862 33.9078 29.9899 33.9078C30.6937 33.9078 31.0645 32.9807 31.4149 31.9042Z" fill="#E6E8EB"/>
</svg>
