<svg width="48" height="48" viewBox="0 0 48 48" fill="none" xmlns="http://www.w3.org/2000/svg">
<path fill-rule="evenodd" clip-rule="evenodd" d="M2 24C2 11.8497 11.8497 2 24 2C36.1503 2 46 11.8497 46 24C46 36.1503 36.1503 46 24 46C11.8497 46 2 36.1503 2 24Z" stroke="#F4F5F6"/>
<path fill-rule="evenodd" clip-rule="evenodd" d="M25.1508 31.2194C25.1508 31.2194 25.5743 31.1732 25.7912 30.9445C25.9898 30.735 25.9829 30.3395 25.9829 30.3395C25.9829 30.3395 25.9565 28.493 26.8299 28.2203C27.6908 27.9522 28.796 30.006 29.9691 30.7958C30.8551 31.3929 31.5277 31.2622 31.5277 31.2622L34.6622 31.2194C34.6622 31.2194 36.3012 31.1203 35.5242 29.8551C35.4599 29.7514 35.0708 28.9188 33.1942 27.2086C31.2281 25.4184 31.4921 25.7079 33.8588 22.6108C35.3004 20.7248 35.8766 19.5734 35.6964 19.0811C35.5253 18.6101 34.4648 18.7352 34.4648 18.7352L30.9366 18.7566C30.9366 18.7566 30.6749 18.7217 30.481 18.8355C30.2916 18.947 30.1688 19.2072 30.1688 19.2072C30.1688 19.2072 29.611 20.6662 28.8661 21.9078C27.2948 24.5261 26.667 24.6647 26.4099 24.5024C25.8119 24.1227 25.9611 22.9792 25.9611 22.1669C25.9611 19.6286 26.3536 18.5707 25.1978 18.2969C24.8145 18.2057 24.5321 18.146 23.5508 18.1358C22.2917 18.1234 21.2266 18.1403 20.6229 18.4299C20.2212 18.6225 19.9113 19.0529 20.1007 19.0777C20.3336 19.1081 20.8616 19.2174 21.1417 19.5914C21.5032 20.0747 21.4906 21.1586 21.4906 21.1586C21.4906 21.1586 21.6983 24.1464 21.0051 24.5171C20.5299 24.7717 19.878 24.2523 18.4766 21.8762C17.7592 20.6595 17.2175 19.3143 17.2175 19.3143C17.2175 19.3143 17.113 19.063 16.926 18.9278C16.6999 18.7645 16.3842 18.7138 16.3842 18.7138L13.0316 18.7352C13.0316 18.7352 12.5278 18.7487 12.343 18.9639C12.1788 19.1543 12.3303 19.5497 12.3303 19.5497C12.3303 19.5497 14.9553 25.5784 17.9279 28.6169C20.6539 31.4019 23.7482 31.2194 23.7482 31.2194H25.1508Z" fill="#E6E8EB"/>
</svg>
